<svg width="16" height="16" fill="none" xmlns="http://www.w3.org/2000/svg"><path fill-rule="evenodd" clip-rule="evenodd" d="M3 5.352V8.23H2V4.65l.516-.188a8 8 0 015.468 0l.516.188V9.5h-1V5.352a7 7 0 00-4.5 0z" fill="#009B5D"/><path fill-rule="evenodd" clip-rule="evenodd" d="M13 5.352V8.23h1V4.65l-.516-.188a8 8 0 00-5.468 0L7.5 4.65V9.5h1V5.352a7 7 0 014.5 0zM1 9a1.5 1.5 0 013 0v2.5H3V9a.5.5 0 00-1 0v1H1V9z" fill="#009B5D"/><path fill-rule="evenodd" clip-rule="evenodd" d="M12 9a1.5 1.5 0 013 0v1h-1V9a.5.5 0 00-1 0v2.5h-1V9z" fill="#009B5D"/><path fill-rule="evenodd" clip-rule="evenodd" d="M11.58 10.308a16.5 16.5 0 00-7.16 0l-.812.18-.216-.976.812-.18a17.5 17.5 0 017.592 0l.813.18-.217.976-.813-.18zM2 9.75v1.75h12V10h1v1.5a1 1 0 01-1 1H2a1 1 0 01-1-1V9.75h1z" fill="#009B5D"/><path d="M2 12.5h1v1H2v-1zM13 12.5h1v1h-1v-1z" fill="#009B5D"/></svg>