<svg width="152" height="98" fill="none" xmlns="http://www.w3.org/2000/svg"><path fill-rule="evenodd" clip-rule="evenodd" d="M112.346 83.994H63s1.401-25.666 22.075-23.938c0 0 23.964 3.055 27.271 23.938z" fill="#9FB0F4"/><path fill-rule="evenodd" clip-rule="evenodd" d="M41 24c.862-13.146.933-18.972 3.02-19.944 2.087-.971 14.755 10.946 15.93 12.378C61.126 17.866 41 24 41 24z" fill="#6775ED"/><mask id="a" maskUnits="userSpaceOnUse" x="0" y="49" width="40" height="30"><path fill-rule="evenodd" clip-rule="evenodd" d="M39 49.046H.156V79H39V49.046z" fill="#fff"/></mask><g mask="url(#a)"><path fill-rule="evenodd" clip-rule="evenodd" d="M39 64.993c-7.934-4.656-24.914-15.94-24.914-15.94C11.547 48.724.271 60.132.156 61.43c-.114 1.3 25.428 17.393 27.339 17.568C29.405 79.173 39 64.993 39 64.993z" fill="#E5B181"/></g><path fill-rule="evenodd" clip-rule="evenodd" d="M39 64.761c-7.443 1.594-21.615 1.608-21.926.285C16.763 63.723 14 49 14 49l25 15.761z" fill="#DD8840"/><path fill-rule="evenodd" clip-rule="evenodd" d="M85 61.247c-1.311-1.188-2.454-2.787-3.476-4.848C79.987 53.3 62.46-.334 60.289.002 57.853.378 52.677 11.8 48.15 20.682c-1.372 2.695-30.014 8.085-34.1 9.969-4.086 1.885 4.738 24.765 9.54 29.558 5.393 5.382 20.973.208 24.566 1.22C51.75 62.443 54.122 73.818 55.225 81L85 61.247z" fill="#9FB0F4"/><path fill-rule="evenodd" clip-rule="evenodd" d="M34 25.616c4.093-1.893 13.424-3.345 14.799-6.05 4.534-8.92 9.11-19.185 11.55-19.563C62.79-.375 74.85 37.017 77 42.589c-3.001 6.215-17.988 9.828-27.684 5.546-9.696-4.282-14-16.23-15.316-22.519z" fill="#6775ED"/><path fill-rule="evenodd" clip-rule="evenodd" d="M53.136 28.078c-2.2.89-.96 7.594 1.644 6.867 2.604-.727.556-7.758-1.644-6.867z" fill="#110097"/><path fill-rule="evenodd" clip-rule="evenodd" d="M19.918 31.935a7 7 0 11-13.837 2.13 7 7 0 0113.837-2.13z" fill="#6775ED"/><path fill-rule="evenodd" clip-rule="evenodd" d="M85.045 60C74.32 72.563 57.179 72.642 53.425 71.961c-.873 2.343-.336 7.062 1.027 12.039h14.715c1.187-2.765 2.324-5.095 3.073-6.272l.166-.262C74.83 73.648 78.611 67.692 88 62.298a2.951 2.951 0 00-.318-.163c-.31-.14-.52-.234-2.637-2.135z" fill="#506CEA"/><path fill-rule="evenodd" clip-rule="evenodd" d="M86.796 59.892c-4.68 6.303 12.75 1.63 14.204-1.836 0 0-6.92-7.972-14.204 1.836z" fill="#506CEA"/><path fill-rule="evenodd" clip-rule="evenodd" d="M84.384 61.917c2.776 4.897 3.361-8.31 1.667-9.917 0 0-5.561 3.05-1.667 9.917z" fill="#506CEA"/><path fill-rule="evenodd" clip-rule="evenodd" d="M49 83.956S48.775 79 43.822 79c-13.734 0-6.08 19-1.801 19 4.277 0 4.953-14.28 4.953-14.28l2.026.236zM88 83.956S87.775 79 82.822 79c-13.734 0-6.08 19-1.801 19 4.277 0 4.956-14.044 4.956-14.044H88z" fill="#9FB0F4"/><path fill-rule="evenodd" clip-rule="evenodd" d="M86 84s.728-1.5 0-4c0 0 1 2.136 1 4h-1z" fill="#6C8BEA"/><path fill-rule="evenodd" clip-rule="evenodd" d="M131 79.457c8.223 0 13.982-43.299 12.88-53.457 4.153 5.119 8.12 18.075 8.12 27.682 0 13.391-9.036 25.666-17.884 30.318" fill="#9FB0F4"/></svg>