<svg width="165" height="24" fill="none" xmlns="http://www.w3.org/2000/svg"><path fill-rule="evenodd" clip-rule="evenodd" d="M4.8 4.84v6.438l.501.501 1.505-1.502V6.079L4.8 4.84zM14.594 3H6.039c-.535.137-.908.439-1.119.907L6.806 5.02h7.048l.74-2.02zm-2.247 15.978H6.806l-1.594 1.558c.208.221.483.375.822.461h7.408l-.034-.094-1.06-1.925zm.843-5.173v4.929l1.156 2.1c.436-.216.72-.584.85-1.106v-7.012l-.458-.458-1.548 1.547zm-7.088-1.51l.703.714h5.982l1.205-1.205-.802-.816H7.41l-1.306 1.306zm19.972 5.26l4.44 1.535c.213.055.33-.07.26-.28L26.203 5.206c-.07-.21-.185-.21-.255 0L21.376 18.81c-.07.21.046.335.26.28l4.44-1.534zM2 0a2 2 0 00-2 2v19.997a2 2 0 002 2h31.996a2 2 0 002-2V2a2 2 0 00-2-2H2zm0 .8h31.996a1.2 1.2 0 011.2 1.2v19.997a1.2 1.2 0 01-1.2 1.2H2a1.2 1.2 0 01-1.2-1.2V2A1.2 1.2 0 012 .8zM56.285 12.59C56.285 9.379 54 6.9 50.837 6.9c-3.034 0-5.333 2.593-5.333 5.708 0 3.018 2.283 5.692 5.382 5.692 3.164 0 5.399-2.577 5.399-5.692v-.016zm1.01-.048c0 1.924-.864 3.686-1.989 4.779a6.676 6.676 0 01-1.827 1.207v.032c.392.245.946.49 1.436.702.456.195.88.342 1.272.473.18.081.424.13.57.179l.017.033-.685.685h-.033c-.424-.13-.946-.343-1.729-.702-.603-.277-1.337-.717-1.826-.994a5.623 5.623 0 01-.702.146 9.046 9.046 0 01-.995.065c-3.604 0-6.312-2.951-6.312-6.458 0-3.703 2.806-6.622 6.59-6.622 3.555 0 6.214 2.838 6.214 6.459v.016zM58.65 11.45V6.066h.913v7.405c0 1.419.195 2.43.684 3.197.604.93 1.794 1.451 2.904 1.451 1.24 0 2.283-.343 3-1.288.588-.783.865-1.941.865-3.556V6.067h.88v7.307c0 1.81-.358 3.131-1.19 4.11-.815.979-2.104 1.484-3.604 1.484-1.468 0-2.74-.538-3.54-1.68-.635-.897-.913-1.892-.913-3.735V11.45zM71.697 13.08v5.709h-.914V6.067h.914v7.013zM83.163 19.148h-.082c-3.474-4.355-5.431-6.85-6.589-8.319-.685-.864-1.11-1.37-1.81-2.38h-.017v10.536h-.848V6.067h.082c3.588 4.534 5.594 7.095 6.736 8.53.62.8 1.06 1.354 1.647 2.186h.033V6.263h.848v12.885zM88.92 6.899h-3.98v-.832h8.889V6.9h-3.996v11.89h-.913V6.899zM105.833 12.59c0-3.212-2.332-5.691-5.431-5.691-3.017 0-5.35 2.528-5.35 5.708 0 3.066 2.349 5.692 5.399 5.692 3.099 0 5.382-2.544 5.382-5.692v-.016zm1.011-.048c0 3.572-2.675 6.605-6.491 6.605-3.54 0-6.312-2.951-6.312-6.458 0-3.752 2.805-6.622 6.589-6.622 3.572 0 6.214 2.838 6.214 6.459v.016zM112.993 14.777v-.033c-.653-1.647-.897-2.397-1.011-2.822h-.017c-.114.425-.375 1.175-1.043 2.822v.033h2.071zm-2.985 2.414c-.391.946-.685 1.663-.734 1.777v.05h-3.099v-.05c.049-.114.375-.831 2.528-5.675l3.197-7.226h.424l3.164 7.226c2.12 4.844 2.43 5.561 2.48 5.675v.05h-3.393v-.05c-.033-.114-.327-.831-.701-1.777h-3.866zM130.33 19.066h-.392c-2.658-2.234-4.256-3.62-5.349-4.615a50.442 50.442 0 01-2.463-2.35h-.033c.033.67.033 1.094.033 1.501v5.301h-2.805V6.067h.391c2.773 2.349 4.404 3.752 5.496 4.78.734.684 1.468 1.37 2.3 2.217h.033c-.017-.832-.017-1.32-.017-1.826V6.182h2.806v12.884zM139.838 12.347c0-1.159-.391-2.202-1.207-2.855-.57-.44-1.337-.701-2.316-.701-.31 0-.62.033-.832.049v7.274c0 .033.017.033.033.033.245.032.506.049.75.049.734 0 1.452-.212 2.055-.636.881-.636 1.517-1.68 1.517-3.197v-.016zm3.132-.066c0 2.43-1.044 4.339-2.887 5.546-1.125.75-2.626 1.109-4.322 1.109-.816 0-1.599-.017-2.121-.033a27.712 27.712 0 01-1.174-.081V6.23c.326-.032.734-.081 1.484-.114a47.673 47.673 0 012.006-.049c1.941 0 3.36.392 4.42 1.044 1.974 1.223 2.594 3.295 2.594 5.154v.016zM148.385 14.777v-.033c-.653-1.647-.898-2.397-1.012-2.822h-.016c-.115.425-.375 1.175-1.044 2.822v.033h2.072zm-2.986 2.414c-.391.946-.684 1.663-.734 1.777v.05h-3.098v-.05c.049-.114.375-.831 2.528-5.675l3.197-7.226h.424l3.164 7.226c2.12 4.844 2.43 5.561 2.479 5.675v.05h-3.393v-.05c-.032-.114-.326-.831-.701-1.777h-3.866zM159.719 10.161c0-.995-.603-1.582-1.582-1.582a4.48 4.48 0 00-.571.032v3.246c.115.016.278.016.425.016.424 0 .799-.13 1.076-.326.294-.195.652-.668.652-1.37v-.016zm-5.007 1.354V6.18c.277-.032.734-.065 1.158-.081a46.362 46.362 0 011.582-.033c1.044 0 1.86.098 2.594.294 1.093.293 2.593 1.223 2.593 3.571 0 1.403-.669 2.415-1.174 2.822-.294.261-.637.506-.849.587v.05c.115.162.326.505 2.74 4.06.343.506.849 1.24.93 1.37v.033h-3.392c-.914-1.468-1.99-3.213-3.034-4.893h-.294v4.893h-2.854v-7.34z" fill="#342D28"/></svg>