<svg width="36" height="36" fill="none" xmlns="http://www.w3.org/2000/svg"><path fill-rule="evenodd" clip-rule="evenodd" d="M7.76 6h20.31c.973 0 1.765.77 1.765 1.717v20.398c0 .949-.792 1.72-1.764 1.72H7.759c-.97 0-1.759-.771-1.759-1.72V7.717C6 6.77 6.789 6 7.76 6zm10.917 8.935h-3.39V26.31h3.532v-5.627c0-1.483.282-2.92 2.122-2.92 1.812 0 1.837 1.696 1.837 3.015v5.532h3.532v-6.239c0-3.062-.66-5.418-4.24-5.418-1.72 0-2.873.942-3.345 1.837h-.048v-1.555zm-7.375-5.654a2.05 2.05 0 11-.003 4.101 2.05 2.05 0 01.003-4.1zm1.767 17.03H9.534V14.934h3.535V26.31z" fill="#69625C"/></svg>