<svg width="36" height="24" fill="none" xmlns="http://www.w3.org/2000/svg"><path fill-rule="evenodd" clip-rule="evenodd" d="M1.978 0A1.978 1.978 0 000 1.978v19.776c0 1.092.885 1.977 1.978 1.977h31.641a1.978 1.978 0 001.978-1.977V1.978A1.978 1.978 0 0033.62 0H1.978zm3.994 2.966h8.461L13.7 4.964H6.73l-1.864-1.1c.208-.463.577-.762 1.106-.898zm-1.226 8.187V4.787l1.985 1.225v4.151l-1.489 1.486-.496-.496zm7.466 7.615H6.73l-1.577 1.541c.207.218.478.37.813.456h7.326l-.033-.093-1.048-1.904zm.833-.242v-4.873l1.53-1.531.455.453v6.934c-.13.517-.41.881-.842 1.095l-1.143-2.078zm-7.01-6.368l.696.707h5.916l1.191-1.192-.793-.806H7.327l-1.291 1.291zm24.142 6.72l-4.39-1.516-4.39 1.517c-.212.054-.327-.07-.257-.277l4.52-13.454c.07-.207.183-.207.253 0l4.52 13.454c.07.207-.045.33-.256.277zM33.619.792H1.978C1.322.791.79 1.322.79 1.978v19.776c0 .655.531 1.186 1.187 1.186h31.641c.656 0 1.187-.53 1.187-1.186V1.978c0-.656-.531-1.187-1.187-1.187z" fill="#5063F0"/></svg>