<svg width="121" height="15" fill="none" xmlns="http://www.w3.org/2000/svg"><path fill-rule="evenodd" clip-rule="evenodd" d="M12.284 6.59C12.284 3.379 10.001.9 6.837.9c-3.034 0-5.333 2.593-5.333 5.708 0 3.018 2.283 5.692 5.382 5.692 3.164 0 5.398-2.577 5.398-5.692v-.016zm1.012-.048c0 1.924-.865 3.686-1.99 4.779a6.678 6.678 0 01-1.827 1.207v.032c.391.245.946.49 1.435.702.457.195.881.342 1.273.473.117.053.262.092.39.127.067.018.13.035.18.052l.017.033-.018.017-.667.668h-.033c-.424-.13-.946-.343-1.729-.702-.48-.22-1.04-.543-1.497-.806l-.33-.189a5.626 5.626 0 01-.701.147 9.046 9.046 0 01-.995.065C3.2 13.147.492 10.195.492 6.69c0-3.703 2.805-6.622 6.59-6.622 3.555 0 6.214 2.838 6.214 6.459v.016zm1.353-1.093V.067h.913v7.405c0 1.419.196 2.43.685 3.197.604.93 1.794 1.451 2.903 1.451 1.24 0 2.284-.342 3.002-1.288.587-.783.864-1.941.864-3.556V.067h.88v7.307c0 1.81-.358 3.131-1.19 4.11-.816.979-2.104 1.484-3.604 1.484-1.468 0-2.74-.538-3.54-1.68-.636-.897-.913-1.892-.913-3.735V5.45zm13.048 7.34V.067h-.914V12.79h.914zm11.466.359h-.082a1391.772 1391.772 0 01-6.004-7.575v-.001l-.002-.003-.007-.009-.011-.014-.016-.02-.01-.013-.006-.007-.015-.02-.518-.657-.315-.395c-.515-.646-.908-1.138-1.496-1.986h-.016v10.537h-.848V.067h.081c1.94 2.45 3.417 4.325 4.545 5.756l.005.006.001.002.002.003c.956 1.211 1.66 2.105 2.183 2.763l.236.304c.503.646.902 1.16 1.412 1.882h.032V.263h.849v12.885zM40.94.898h3.98v11.89h.913V.899h3.996v-.83h-8.89v.83zm20.893 5.693C61.833 3.378 59.5.899 56.4.899c-3.017 0-5.35 2.528-5.35 5.708 0 3.066 2.35 5.692 5.4 5.692 3.099 0 5.382-2.544 5.382-5.692v-.016zm1.011-.05c0 3.573-2.675 6.606-6.491 6.606-3.54 0-6.312-2.952-6.312-6.458 0-3.752 2.805-6.622 6.589-6.622 3.572 0 6.214 2.838 6.214 6.459v.016zm6.149 2.203v.033H66.92v-.033c.669-1.647.93-2.398 1.044-2.821h.016c.115.423.36 1.174 1.012 2.821zm-3.445 3.56l.46-1.114h3.865c.128.324.247.62.349.875v.002c.197.49.331.826.352.901v.05h3.393v-.05c-.049-.114-.359-.831-2.479-5.675L68.324.067H67.9l-3.197 7.226c-1.52 3.421-2.13 4.784-2.374 5.33-.102.226-.14.312-.154.345v.05h3.099v-.05l.271-.656.002-.006.001-.002zm20.782.762h-.392c-2.658-2.234-4.257-3.62-5.35-4.615a50.384 50.384 0 01-2.462-2.35h-.033c.033.67.033 1.094.033 1.501v5.301H75.32V.067h.392c2.772 2.349 4.404 3.752 5.496 4.78.734.684 1.468 1.37 2.3 2.217h.032c-.016-.832-.016-1.32-.016-1.826V.182h2.806v12.884zm8.301-9.574c.816.653 1.207 1.696 1.207 2.855v.016c0 1.517-.636 2.56-1.517 3.197a3.562 3.562 0 01-2.055.635c-.245 0-.506-.016-.75-.048-.016 0-.033 0-.033-.033V2.84l.136-.011c.199-.017.447-.038.696-.038.979 0 1.745.261 2.316.701zm1.452 8.335C97.926 10.62 98.97 8.71 98.97 6.28v-.016c0-1.86-.62-3.93-2.594-5.154-1.06-.652-2.48-1.044-4.42-1.044-.603 0-1.223.017-2.006.05a20.47 20.47 0 00-1.345.099l-.076.008-.063.006v12.592c.342.033.831.065 1.174.081.522.016 1.305.033 2.12.033 1.697 0 3.197-.359 4.323-1.11zm8.301-3.05v-.033c-.652-1.647-.897-2.398-1.011-2.821h-.016c-.115.423-.376 1.174-1.044 2.821v.033h2.071zm-3.43 3.493l-.004.01c-.154.374-.257.625-.285.688v.05h-3.098v-.05l.154-.346c.243-.545.853-1.908 2.374-5.33l3.196-7.225h.424l3.165 7.226c2.12 4.844 2.43 5.561 2.479 5.675v.05h-3.393v-.05c-.021-.075-.156-.411-.352-.902-.102-.255-.221-.552-.349-.876h-3.866l-.445 1.08zm13.183-9.691c.979 0 1.582.587 1.582 1.582v.016c0 .702-.359 1.175-.652 1.37a1.874 1.874 0 01-1.077.326c-.146 0-.309 0-.424-.016V2.611a4.48 4.48 0 01.571-.032zM110.712.18v12.674h2.854V7.96h.294c.494.795.995 1.604 1.482 2.392.544.877 1.07 1.728 1.551 2.501h3.393v-.032c-.052-.084-.279-.416-.525-.777a487.867 487.867 0 01-2.999-4.439l-.146-.216v-.049c.212-.081.555-.326.848-.587.506-.408 1.175-1.42 1.175-2.821 0-2.349-1.501-3.279-2.594-3.572-.734-.196-1.549-.294-2.593-.294-.44 0-1.223.016-1.582.033-.424.016-.881.049-1.158.081z" fill="#5063F0"/></svg>