<svg width="165" height="25" viewBox="0 0 165 25" fill="none" xmlns="http://www.w3.org/2000/svg">
<path fill-rule="evenodd" clip-rule="evenodd" d="M4.79938 11.7782V5.3404L6.80616 6.57918V10.7768L5.30108 12.2791L4.79938 11.7782ZM6.03923 3.49964H14.5947L13.8535 5.51973H6.80616L4.9203 4.4066C5.13055 3.93905 5.5036 3.63688 6.03923 3.49964ZM6.80616 19.4772L12.3484 19.4776L13.4083 21.4034L13.442 21.4973H6.03365C5.69453 21.4109 5.42049 21.2572 5.21216 21.0364L6.80616 19.4772ZM13.1912 19.2336V14.3054L14.739 12.7576L15.1979 13.2159V20.2276C15.0667 20.7497 14.7834 21.1184 14.347 21.3345L13.1912 19.2336ZM6.80616 13.5086L6.10323 12.7945L7.40901 11.4887L13.1912 11.4885L13.9931 12.3036L12.7883 13.5084L6.80616 13.5086ZM30.5144 19.5902L26.0752 18.0559L21.6362 19.5902C21.4221 19.6447 21.3057 19.5195 21.3761 19.3101L25.9476 5.70572C26.0181 5.49632 26.1321 5.49632 26.2026 5.70572L30.7745 19.3101C30.8447 19.5195 30.7283 19.6447 30.5144 19.5902ZM0 2.49969C0 1.39536 0.895146 0.5 1.99969 0.5H33.9956C35.1001 0.5 35.9955 1.39536 35.9955 2.49969V22.4972C35.9955 23.6018 35.1001 24.4969 33.9956 24.4969H1.99969C0.895146 24.4969 0 23.6018 0 22.4972V2.49969ZM33.9956 1.3H1.99969C1.33692 1.3 0.79979 1.83714 0.79979 2.49969V22.4972C0.79979 23.16 1.33692 23.6971 1.99969 23.6971H33.9956C34.6583 23.6971 35.1955 23.16 35.1955 22.4972V2.49969C35.1955 1.83714 34.6583 1.3 33.9956 1.3ZM50.8371 7.39873C54.0014 7.39873 56.2846 9.87799 56.2846 13.0909V13.1072C56.2846 16.2224 54.05 18.7994 50.886 18.7994C47.7869 18.7994 45.5038 16.1247 45.5038 13.1072C45.5038 9.99181 47.8033 7.39873 50.8371 7.39873ZM55.3061 17.8209C56.4315 16.728 57.2959 14.9664 57.2959 13.0419V13.0256C57.2959 9.40486 54.6371 6.56715 51.0817 6.56715C47.2977 6.56715 44.4924 9.48647 44.4924 13.1888C44.4924 16.6955 47.2 19.6473 50.8044 19.6473C51.1631 19.6473 51.5056 19.6148 51.7992 19.5824C52.093 19.5332 52.354 19.4843 52.5006 19.4355C52.6013 19.4925 52.7124 19.5565 52.8306 19.6245C53.2866 19.887 53.8481 20.2103 54.3274 20.4303C55.11 20.7894 55.6321 21.0012 56.0561 21.1317H56.089L56.4229 20.7976L56.7738 20.4466L56.7575 20.414C56.7068 20.3971 56.6443 20.3801 56.5769 20.3619C56.4494 20.3274 56.3042 20.288 56.1869 20.2347C55.7954 20.1041 55.3714 19.9572 54.9146 19.7617C54.4254 19.5496 53.8706 19.3049 53.4793 19.0603V19.0279C54.2621 18.6851 54.9307 18.1796 55.3061 17.8209ZM58.6491 11.9494V6.56715H59.5625V13.9719C59.5625 15.3906 59.7582 16.4019 60.2474 17.1687C60.8511 18.0982 62.0413 18.6203 63.1506 18.6203C64.3902 18.6203 65.4342 18.2775 66.1518 17.3317C66.7389 16.5488 67.016 15.3906 67.016 13.7758V6.56715H67.8967V13.8739C67.8967 15.6842 67.5381 17.0054 66.7065 17.9841C65.8906 18.9626 64.602 19.4682 63.1019 19.4682C61.6337 19.4682 60.3619 18.9302 59.5625 17.788C58.9266 16.8912 58.6491 15.8964 58.6491 14.0533V11.9494ZM71.697 19.2888V13.5803V6.56715H70.7834V19.2888H71.697ZM83.1628 19.6477H83.0814C80.1331 15.9524 78.2773 13.596 77.0755 12.0699L77.0749 12.0692L77.0637 12.0548C76.8539 11.7885 76.6642 11.5476 76.4921 11.3294C76.3811 11.1894 76.277 11.0589 76.1774 10.9341L76.1773 10.9339L76.1772 10.9339C75.6621 10.2881 75.2692 9.79556 74.6814 8.94848H74.6653V19.4847H73.817V6.56715H73.8986C75.8419 9.02273 77.3211 10.8994 78.4503 12.3319L78.4515 12.3334C79.4068 13.5453 80.1115 14.4393 80.6345 15.097L80.8704 15.4007C81.3728 16.0469 81.7718 16.5603 82.282 17.2829H82.3146V6.76302H83.1628V19.6477ZM84.9401 7.39873H88.9199V19.2888H89.8331V7.39873H93.8291V6.56715H84.9401V7.39873ZM105.833 13.0909C105.833 9.87799 103.501 7.39873 100.402 7.39873C97.3845 7.39873 95.0522 9.92653 95.0522 13.1072C95.0522 16.1734 97.4008 18.7994 100.451 18.7994C103.55 18.7994 105.833 16.255 105.833 13.1072V13.0909ZM106.844 13.0419C106.844 16.6139 104.169 19.6473 100.353 19.6473C96.8137 19.6473 94.0408 16.6955 94.0408 13.1888C94.0408 9.43729 96.8461 6.56715 100.63 6.56715C104.202 6.56715 106.844 9.40486 106.844 13.0256V13.0419ZM112.993 15.2441V15.2766H110.921V15.2441C111.59 13.5967 111.851 12.8465 111.965 12.4225H111.982C112.096 12.8465 112.34 13.5967 112.993 15.2441ZM109.549 18.8042C109.672 18.5038 109.83 18.1208 110.008 17.6905H113.874C114.002 18.0137 114.12 18.3101 114.222 18.565L114.223 18.5665C114.419 19.057 114.553 19.3932 114.575 19.4682V19.5173H117.968V19.4682C117.918 19.3541 117.608 18.6366 115.488 13.7925L112.324 6.56715H111.9L108.703 13.7925C107.182 17.214 106.573 18.5768 106.329 19.1223C106.228 19.3491 106.189 19.4347 106.175 19.4682V19.5173H109.274V19.4682C109.3 19.4064 109.399 19.168 109.545 18.8121L109.548 18.8061L109.549 18.8042ZM130.33 19.5663H129.938C127.28 17.3319 125.682 15.9456 124.589 14.9508C123.741 14.1841 123.137 13.6295 122.126 12.6019H122.093C122.126 13.2709 122.126 13.6948 122.126 14.1024V19.4033H119.321V6.56715H119.712C122.485 8.91583 124.116 10.3187 125.208 11.3461C125.942 12.031 126.676 12.7163 127.508 13.5642H127.541C127.524 12.7324 127.524 12.2432 127.524 11.7376V6.68162H130.33V19.5663ZM138.631 9.99246C139.447 10.6447 139.838 11.6885 139.838 12.8467V12.863C139.838 14.3799 139.202 15.4237 138.321 16.0598C137.718 16.4838 137 16.6955 136.266 16.6955C136.022 16.6955 135.761 16.6794 135.516 16.647C135.5 16.647 135.483 16.647 135.483 16.6141V9.34C135.525 9.33677 135.571 9.33291 135.62 9.32879L135.62 9.32876C135.818 9.31202 136.067 9.29103 136.315 9.29103C137.294 9.29103 138.061 9.55219 138.631 9.99246ZM140.083 18.3269C141.926 17.1199 142.97 15.2115 142.97 12.7814V12.7653C142.97 10.9056 142.35 8.83444 140.376 7.61091C139.316 6.95867 137.897 6.56715 135.956 6.56715C135.353 6.56715 134.733 6.58369 133.95 6.61612C133.303 6.6443 132.91 6.68464 132.605 6.71601L132.53 6.72375C132.508 6.72595 132.487 6.72809 132.466 6.73016V19.3217C132.808 19.3546 133.298 19.387 133.64 19.4031C134.162 19.4194 134.945 19.4359 135.761 19.4359C137.457 19.4359 138.958 19.0771 140.083 18.3269ZM148.385 15.2766V15.2441C147.732 13.5967 147.487 12.8465 147.373 12.4225H147.357C147.242 12.8465 146.982 13.5967 146.313 15.2441V15.2766H148.385ZM144.954 18.7703L144.95 18.7808C144.796 19.154 144.693 19.4047 144.665 19.4682V19.5173H141.567V19.4682C141.581 19.4347 141.619 19.3491 141.721 19.1223C141.965 18.5768 142.574 17.214 144.095 13.7925L147.292 6.56715H147.716L150.88 13.7925C153 18.6366 153.31 19.3541 153.359 19.4682V19.5173H149.966V19.4682C149.945 19.3931 149.81 19.0567 149.614 18.5657C149.512 18.3107 149.393 18.014 149.265 17.6905H145.4C145.228 18.1048 145.076 18.4752 144.954 18.7703ZM158.137 9.07884C159.116 9.07884 159.719 9.6658 159.719 10.661V10.6771C159.719 11.3786 159.361 11.8517 159.067 12.0471C158.79 12.2428 158.415 12.3734 157.991 12.3734C157.844 12.3734 157.681 12.3734 157.566 12.357V9.11127C157.713 9.09495 157.86 9.07884 158.137 9.07884ZM154.712 6.68119V12.0147V19.3541H157.566V14.4611H157.86C158.354 15.2558 158.855 16.0651 159.343 16.8528C159.886 17.7301 160.412 18.5806 160.894 19.3541H164.286V19.3217C164.234 19.2378 164.007 18.9059 163.761 18.5453C163.623 18.3435 163.479 18.1328 163.356 17.9515C161.569 15.3192 160.989 14.4478 160.762 14.1067C160.682 13.987 160.646 13.9326 160.616 13.8903V13.8411C160.828 13.7597 161.171 13.5151 161.465 13.2541C161.97 12.8465 162.639 11.8349 162.639 10.4325C162.639 8.08404 161.139 7.15411 160.046 6.86052C159.312 6.66487 158.496 6.56715 157.452 6.56715C157.012 6.56715 156.229 6.58326 155.87 6.59958C155.446 6.6159 154.989 6.64876 154.712 6.68119Z" fill="#5063F0"/>
</svg>
