<svg width="16" height="16" fill="none" xmlns="http://www.w3.org/2000/svg"><path fill-rule="evenodd" clip-rule="evenodd" d="M3 6.5a1 1 0 100 2 1 1 0 000-2zm-2 1a2 2 0 114 0 2 2 0 01-4 0zM5.5 2.5a1 1 0 100 2 1 1 0 000-2zm-2 1a2 2 0 114 0 2 2 0 01-4 0zM13 6.5a1 1 0 110 2 1 1 0 010-2zm2 1a2 2 0 10-4 0 2 2 0 004 0zM10 2.5a1 1 0 110 2 1 1 0 010-2zm2 1a2 2 0 10-4 0 2 2 0 004 0zM9.179 8.805a1.5 1.5 0 00-2.358 0l-1.48 1.88a1.42 1.42 0 00.013 1.772.78.78 0 00.891.235l.14-.055a4.587 4.587 0 013.231-.046l.32.115a.745.745 0 00.865-.276 1.367 1.367 0 00-.049-1.626l-1.573-2zm-3.143-.619a2.5 2.5 0 013.928 0l1.574 1.999c.644.818.678 1.96.085 2.815a1.745 1.745 0 01-2.025.647l-.32-.116a3.587 3.587 0 00-2.527.037l-.14.055a1.78 1.78 0 01-2.034-.537 2.42 2.42 0 01-.021-3.02l1.48-1.88z" fill="#009B5D"/></svg>