<svg width="36" height="36" fill="none" xmlns="http://www.w3.org/2000/svg"><path d="M13.782 26.526c8.58 0 13.273-6.925 13.273-12.931 0-.197 0-.393-.014-.588a9.36 9.36 0 002.327-2.352 9.502 9.502 0 01-2.679.715 4.584 4.584 0 002.051-2.514 9.5 9.5 0 01-2.962 1.103c-1.446-1.498-3.744-1.865-5.605-.894-1.86.97-2.822 3.036-2.345 5.04-3.75-.184-7.245-1.91-9.614-4.75-1.238 2.077-.606 4.734 1.444 6.068a4.722 4.722 0 01-2.117-.57v.058c0 2.164 1.566 4.027 3.742 4.456a4.776 4.776 0 01-2.106.078c.611 1.851 2.363 3.12 4.358 3.156a9.518 9.518 0 01-6.903 1.884 13.462 13.462 0 007.15 2.038" fill="#69625C"/></svg>